<svg width="1440" height="838" viewBox="0 0 1440 838" fill="none" xmlns="http://www.w3.org/2000/svg">
<g clip-path="url(#clip0_511_33)">
<path d="M100.327 589.645L100.329 589.646L144.594 638.709C166.14 662.59 173.243 696.182 163.209 726.74L142.595 789.523L142.594 789.524L122.238 852.391C112.329 882.99 86.7895 905.938 55.3081 912.528L-9.37057 926.066L-9.37209 926.067L-73.9947 939.87C-105.449 946.589 -138.092 935.945 -159.539 911.976L-203.603 862.732L-203.604 862.731L-247.87 813.668C-269.416 789.787 -276.519 756.196 -266.485 725.637L-245.871 662.854L-245.87 662.853L-225.513 599.986C-215.605 569.387 -190.065 546.439 -158.584 539.85L-93.9054 526.311L-93.9038 526.311L-29.2812 512.507C2.17278 505.788 34.8159 516.432 56.2634 540.401L100.327 589.645Z" fill="url(#paint0_linear_511_33)" stroke="url(#paint1_linear_511_33)" stroke-width="0.765"/>
<path opacity="0.04" d="M229.636 454.557L229.642 454.564L336.443 572.939C361.766 601.007 370.114 640.487 358.321 676.403L308.584 827.88L308.581 827.889L259.466 979.569C247.82 1015.53 217.803 1042.5 180.803 1050.25L24.7515 1082.91L24.7423 1082.91L-131.174 1116.22C-168.142 1124.12 -206.508 1111.61 -231.715 1083.44L-338.03 964.623L-338.036 964.616L-444.837 846.241C-470.16 818.174 -478.508 778.693 -466.716 742.777L-416.978 591.3L-416.975 591.291L-367.86 439.611C-356.215 403.648 -326.198 376.677 -289.197 368.932L-133.146 336.267L-133.136 336.265L22.78 302.961C59.7481 295.064 98.1139 307.574 123.321 335.745L229.636 454.557Z" stroke="#EB5BE5" stroke-width="4.59"/>
<path opacity="0.04" d="M339.955 355.127L339.958 355.13L503.885 536.822C529.483 565.195 537.923 605.105 526.001 641.412L449.661 873.911L449.659 873.916L374.273 1106.73C362.501 1143.08 332.157 1170.35 294.754 1178.17L55.2331 1228.31L55.2285 1228.31L-184.084 1279.43C-221.455 1287.41 -260.239 1274.77 -285.72 1246.29L-448.9 1063.93L-448.903 1063.92L-612.83 882.232C-638.428 853.859 -646.868 813.949 -634.947 777.642L-558.606 545.143L-558.605 545.138L-483.218 312.328C-471.446 275.973 -441.102 248.708 -403.699 240.879L-164.178 190.743L-164.174 190.742L75.139 139.623C112.51 131.64 151.293 144.287 176.775 172.764L339.955 355.127Z" stroke="#EB5BE5" stroke-width="2.295"/>
<path d="M1339.67 340.355L1339.67 340.354L1295.41 291.291C1273.86 267.41 1266.76 233.818 1276.79 203.26L1297.41 140.477L1297.41 140.476L1317.76 77.6089C1327.67 47.0096 1353.21 24.0619 1384.69 17.4722L1449.37 3.93361L1449.37 3.9333L1513.99 -9.87044C1545.45 -16.5892 1578.09 -5.94504 1599.54 18.0237L1643.6 67.2678L1643.6 67.269L1687.87 116.332C1709.42 140.213 1716.52 173.804 1706.49 204.363L1685.87 267.146L1685.87 267.147L1665.51 330.014C1655.61 360.613 1630.07 383.561 1598.58 390.15L1533.91 403.689L1533.9 403.689L1469.28 417.493C1437.83 424.212 1405.18 413.568 1383.74 389.599L1339.67 340.355Z" fill="url(#paint2_linear_511_33)" stroke="url(#paint3_linear_511_33)" stroke-width="0.765"/>
<path opacity="0.04" d="M1210.36 475.443L1210.36 475.436L1103.56 357.06C1078.23 328.993 1069.89 289.513 1081.68 253.597L1131.42 102.12L1131.42 102.111L1180.53 -49.5689C1192.18 -85.5326 1222.2 -112.503 1259.2 -120.248L1415.25 -152.913L1415.26 -152.915L1571.17 -186.22C1608.14 -194.116 1646.51 -181.606 1671.72 -153.435L1778.03 -34.6229L1778.04 -34.6159L1884.84 83.7593C1910.16 111.826 1918.51 151.307 1906.72 187.223L1856.98 338.7L1856.98 338.709L1807.86 490.389C1796.21 526.352 1766.2 553.323 1729.2 561.068L1573.15 593.733L1573.14 593.735L1417.22 627.039C1380.25 634.936 1341.89 622.426 1316.68 594.255L1210.36 475.443Z" stroke="#EB5BE5" stroke-width="4.59"/>
<path opacity="0.04" d="M1100.05 574.873L1100.04 574.87L936.116 393.178C910.518 364.805 902.078 324.895 914 288.588L990.34 56.0887L990.342 56.0841L1065.73 -176.726C1077.5 -213.081 1107.84 -240.346 1145.25 -248.175L1384.77 -298.311L1384.77 -298.312L1624.09 -349.431C1661.46 -357.414 1700.24 -344.767 1725.72 -316.29L1888.9 -133.927L1888.9 -133.924L2052.83 47.768C2078.43 76.1407 2086.87 116.051 2074.95 152.358L1998.61 384.857L1998.61 384.862L1923.22 617.672C1911.45 654.027 1881.1 681.292 1843.7 689.121L1604.18 739.257L1604.17 739.258L1364.86 790.377C1327.49 798.36 1288.71 785.713 1263.23 757.236L1100.05 574.873Z" stroke="#EB5BE5" stroke-width="2.295"/>
</g>
<defs>
<linearGradient id="paint0_linear_511_33" x1="21.7187" y1="501.222" x2="-124.995" y2="951.155" gradientUnits="userSpaceOnUse">
<stop stop-color="#101010"/>
<stop offset="0.662523" stop-color="#101010" stop-opacity="0"/>
</linearGradient>
<linearGradient id="paint1_linear_511_33" x1="21.7187" y1="501.222" x2="-124.995" y2="951.155" gradientUnits="userSpaceOnUse">
<stop stop-color="white" stop-opacity="0.19"/>
<stop offset="0.619295" stop-color="#D8D8D8" stop-opacity="0"/>
</linearGradient>
<linearGradient id="paint2_linear_511_33" x1="1418.28" y1="428.778" x2="1564.99" y2="-21.1555" gradientUnits="userSpaceOnUse">
<stop stop-color="#101010"/>
<stop offset="0.662523" stop-color="#101010" stop-opacity="0"/>
</linearGradient>
<linearGradient id="paint3_linear_511_33" x1="1418.28" y1="428.778" x2="1564.99" y2="-21.1555" gradientUnits="userSpaceOnUse">
<stop stop-color="white" stop-opacity="0.19"/>
<stop offset="0.619295" stop-color="#D8D8D8" stop-opacity="0"/>
</linearGradient>
<clipPath id="clip0_511_33">
<rect width="1440" height="838" fill="white"/>
</clipPath>
</defs>
</svg>
