<svg width="65" height="15" viewBox="0 0 65 15" fill="none" xmlns="http://www.w3.org/2000/svg">
<path d="M13.672 11.12C11.668 11.12 10.3 10.136 10.3 8C10.3 6.08 11.656 4.868 13.636 4.868C15.604 4.868 16.912 5.9 16.912 7.784C16.912 8 16.888 8.156 16.864 8.36H11.968C12.016 9.284 12.448 9.68 13.612 9.68C14.68 9.68 15.052 9.404 15.052 8.888V8.768H16.852V8.9C16.852 10.208 15.58 11.12 13.672 11.12ZM13.6 6.272C12.532 6.272 12.076 6.632 11.992 7.412H15.184C15.136 6.62 14.656 6.272 13.6 6.272ZM19.4753 11H17.6753V4.988H19.3433V6.584H19.4513C19.6193 5.612 20.2553 4.868 21.4673 4.868C22.8113 4.868 23.3633 5.792 23.3633 6.968V7.964H21.5633V7.34C21.5633 6.68 21.2993 6.392 20.5673 6.392C19.7633 6.392 19.4753 6.764 19.4753 7.52V11ZM26.4992 11.12C24.8072 11.12 24.0032 10.076 24.0032 8.732V4.988H25.8032V8.132C25.8032 9.104 26.2112 9.512 27.3512 9.512C28.5272 9.512 28.9472 9.056 28.9472 8.036V4.988H30.7472V11H29.0672V9.164H28.9712C28.8152 10.172 28.0832 11.12 26.4992 11.12Z" fill="white"/>
<path d="M35.3155 11.12C32.8795 11.12 31.5115 10.16 31.5115 8.288V8.216H33.3115V8.432C33.3115 9.176 33.6835 9.476 35.3155 9.476C36.7555 9.476 37.0915 9.26 37.0915 8.72C37.0915 8.228 36.8155 8.048 35.9875 7.904L33.7315 7.58C32.2915 7.352 31.4395 6.632 31.4395 5.324C31.4395 4.112 32.4235 2.84 35.1235 2.84C37.5955 2.84 38.7475 3.98 38.7475 5.672V5.744H36.9355V5.576C36.9355 4.808 36.5395 4.484 34.9435 4.484C33.6475 4.484 33.2515 4.736 33.2515 5.252C33.2515 5.72 33.5155 5.888 34.1875 6.008L36.4435 6.368C38.2435 6.656 38.8915 7.532 38.8915 8.636C38.8915 9.944 37.8715 11.12 35.3155 11.12ZM43.0325 11H40.7885L39.1445 4.988H41.0045L41.7125 7.736L41.9645 9.608H42.0845L42.5645 7.556L43.4765 4.988H45.7925L46.6925 7.556L47.1725 9.608H47.2925L47.5565 7.736L48.2525 4.988H50.0885L48.3845 11H46.1405L45.1085 8.108L44.6645 6.452H44.5325L44.0765 8.108L43.0325 11ZM52.4178 11.12C51.1218 11.12 50.3418 10.52 50.3418 9.512C50.3418 8.624 51.0018 8.072 52.2858 7.94L54.8658 7.676V7.448C54.8658 6.668 54.5178 6.452 53.5578 6.452C52.6458 6.452 52.2738 6.692 52.2738 7.376V7.424H50.4618V7.388C50.4618 5.9 51.7098 4.868 53.6898 4.868C55.6938 4.868 56.6418 5.9 56.6418 7.472V11H54.9618V9.62H54.8658C54.5898 10.556 53.7498 11.12 52.4178 11.12ZM52.1538 9.392C52.1538 9.716 52.4058 9.848 52.9338 9.848C54.1578 9.848 54.8178 9.56 54.8658 8.708L52.7778 8.948C52.3458 8.984 52.1538 9.104 52.1538 9.392ZM59.3542 13.04H57.5542V4.988H59.2222V6.632H59.3422C59.5582 5.48 60.3262 4.868 61.7422 4.868C63.5902 4.868 64.6222 6.092 64.6222 8C64.6222 9.908 63.6142 11.12 61.8022 11.12C60.4102 11.12 59.6422 10.436 59.4382 9.38H59.3542V13.04ZM59.3542 8.084C59.3542 9.116 59.9782 9.476 61.1062 9.476C62.2582 9.476 62.7982 9.092 62.7982 8C62.7982 6.896 62.2582 6.524 61.1182 6.524C59.9542 6.524 59.3542 6.92 59.3542 7.988V8.084Z" fill="#6D28D9"/>
<path d="M0 3V4.54899H7.45101V5.38785L6.8081 6.03077H1.50364V6.04615L1.48826 6.03077L0.721457 6.79757L1.81619 7.89312L2.12955 7.57976H7.45101L9 6.03077V4.54899V3H7.45101H0Z" fill="white"/>
<path d="M1.50769 10.5709H9V9.02187H0L1.50769 10.5709Z" fill="white"/>
</svg>
